<?xml version="1.0" encoding="UTF-8"?>
<svg width="176px" height="175px" viewBox="0 0 176 175" version="1.1" xmlns="http://www.w3.org/2000/svg" xmlns:xlink="http://www.w3.org/1999/xlink">
    <!-- Generator: Sketch 58 (84663) - https://sketch.com -->
    <title>Group 2</title>
    <desc>Created with Sketch.</desc>
    <g id="Page-1" stroke="none" stroke-width="1" fill="none" fill-rule="evenodd">
        <g id="Artboard" transform="translate(-413.000000, -451.000000)">
            <g id="Group-2" transform="translate(422.000000, 456.000000)">
                <g id="Group-4" transform="translate(39.000000, 64.499932)" fill="#FFFFFF" stroke="#812CE5" stroke-linecap="round" stroke-linejoin="round" stroke-width="8">
                    <path d="M0,22 L20,0" id="Line-4"></path>
                    <path d="M0,23 L22,42" id="Line-4"></path>
                </g>
                <g id="Group-4" transform="translate(105.000000, 85.499932) scale(-1, 1) translate(-105.000000, -85.499932) translate(94.000000, 64.499932)" fill="#FFFFFF" stroke="#812CE5" stroke-linecap="round" stroke-linejoin="round" stroke-width="8">
                    <path d="M0,22 L20,0" id="Line-4"></path>
                    <path d="M0,23 L22,42" id="Line-4"></path>
                </g>
                <path d="M72,106.499932 L83,65.4999323" id="Line-4" stroke="#812CE5" stroke-width="8" fill="#FFFFFF" stroke-linecap="round" stroke-linejoin="round"></path>
                <path id="Line-9" d="M74.4859874,86.9999949 L75.5383535,87.0032598 C103.773173,87.2063259 125.510981,96.896589 140.284811,116.02653 L159.026859,108.8732 C160.688876,108.238748 162.550533,109.071754 163.184985,110.733771 C163.363327,111.200957 163.430447,111.70325 163.381029,112.200872 L163.381029,112.200872 L158.126597,165.110922 C157.950791,166.881211 156.37317,168.173795 154.602881,167.99799 C153.90933,167.929114 153.256827,167.637149 152.743311,167.165918 L152.743311,167.165918 L113.56793,131.216342 C112.257182,130.013524 112.169687,127.975877 113.372505,126.665129 C113.710612,126.296683 114.12986,126.012017 114.597046,125.833674 L114.597046,125.833674 L130.458207,119.778029 C117.558504,104.578587 99.0874369,97 74.6296296,97 L74.6296296,97 L73.0820878,97.004911 C66.4718147,97.0540006 62.2741863,97.4876879 56.5279179,99.0603259 C47.7855392,101.452939 38.689293,106.123227 28.9324354,113.829564 C14.5080834,125.222466 6.51709607,142.264661 4.98906448,165.330508 C4.80652993,168.085892 2.42487619,170.171599 -0.330508042,169.989064 C-3.08589227,169.80653 -5.17159904,167.424876 -4.98906448,164.669492 C-3.28379511,138.928216 5.94743978,119.240974 22.7342313,105.982127 C33.5277551,97.4569916 43.8289935,92.1680242 53.888193,89.4150238 C60.6332478,87.5690381 65.5743724,87.0613052 72.9723676,87.0054117 L72.9723676,87.0054117 L74.4859874,86.9999949 Z" fill="#FFAF00" fill-rule="nonzero"></path>
                <path id="Line-9" d="M76.486002,-5.0000054 L77.5660101,-4.99635656 C106.765823,-4.76855288 129.01092,6.14121529 143.768839,27.5954736 L162.584107,21.0066878 C164.263104,20.4186391 166.100907,21.3030272 166.688956,22.9820238 C166.854254,23.4539832 166.907398,23.9579467 166.844178,24.4540036 L166.844178,24.4540036 L160.12231,77.1977136 C159.897407,78.9624371 158.284495,80.210708 156.519772,79.9858046 C155.828401,79.8976935 155.184258,79.5877189 154.684028,79.1024075 L154.684028,79.1024075 L116.522181,42.0786869 C115.245344,40.8399301 115.214474,38.8006385 116.453231,37.5238017 C116.801441,37.1648878 117.228433,36.8919753 117.700392,36.7266771 L117.700392,36.7266771 L133.937253,31.0392764 C120.964757,13.6380026 102.023945,5 76.6296296,5 L76.6296296,5 L75.1288112,5.004828 C68.513673,5.05473503 64.3301462,5.50847659 58.5948099,7.16413065 C49.8731212,9.68187305 40.7881482,14.601962 31.0337645,22.7285034 C16.5631727,34.784197 8.52566138,52.8648677 6.99016787,77.3134081 C6.81707736,80.0694017 4.44258552,82.1632584 1.68659191,81.9901679 C-1.06940171,81.8170774 -3.16325838,79.4425855 -2.99016787,76.6865919 C-1.29236043,49.6536455 7.89235048,28.9923081 24.6329022,15.0454726 C35.4288998,6.05114514 45.7414116,0.466266085 55.821301,-2.44355631 C62.5896722,-4.39742276 67.5506001,-4.93507734 74.9684167,-4.99426877 L74.9684167,-4.99426877 L76.486002,-5.0000054 Z" fill="#FFAF00" fill-rule="nonzero"></path>
            </g>
        </g>
    </g>
</svg>