<svg width="176" height="175" viewBox="0 0 176 175" xmlns="http://www.w3.org/2000/svg"><g fill="none" fill-rule="evenodd"><path d="M48 91.5l20-22m-20 23l22 19m55-20l-20-22m20 23l-22 19m-22 0l11-41" fill="#FFF" stroke="#812CE5" stroke-linecap="round" stroke-linejoin="round" stroke-width="8"/><path d="M83.486 92l1.052.003c28.235.203 49.973 9.894 64.747 29.024l18.742-7.154a3.221 3.221 0 014.354 3.328l-5.254 52.91a3.221 3.221 0 01-5.384 2.055l-39.175-35.95a3.221 3.221 0 011.029-5.382l15.861-6.056c-12.9-15.2-31.37-22.778-55.828-22.778l-1.548.005c-6.61.049-10.808.483-16.554 2.055-8.742 2.393-17.839 7.063-27.596 14.77-14.424 11.392-22.415 28.435-23.943 51.5a5 5 0 11-9.978-.66c1.705-25.742 10.936-45.429 27.723-58.688 10.794-8.525 21.095-13.814 31.154-16.567 6.745-1.846 11.686-2.354 19.084-2.41L83.486 92zm2-92l1.08.004c29.2.227 51.445 11.137 66.203 32.591l18.815-6.588a3.221 3.221 0 014.26 3.447l-6.722 52.744a3.221 3.221 0 01-5.438 1.904L125.522 47.08a3.221 3.221 0 011.178-5.352l16.237-5.688C129.965 18.638 111.024 10 85.63 10l-1.501.005c-6.615.05-10.799.503-16.534 2.16-8.722 2.517-17.807 7.437-27.561 15.564-14.47 12.055-22.508 30.136-24.044 54.584a5 5 0 01-9.98-.626c1.698-27.033 10.882-47.695 27.623-61.642C44.429 11.051 54.74 5.466 64.82 2.556 71.59.603 76.551.065 83.968.006L85.486 0z" fill="#FFAF00" fill-rule="nonzero"/></g></svg>