<svg id="CrypTen_Horizontal_Logos" xmlns="http://www.w3.org/2000/svg" viewBox="0 0 1300 330"><defs><style>.cls-1{fill:#fff}</style></defs><path class="cls-1" d="M336.72 184.41l-18.53.22v48h-14V96.34h34.23c36 0 53.19 17.44 53.19 42.51.04 29.86-21.1 45.15-54.89 45.56zM338 109.2h-19.81v62.56l19.4-.43c25.72-.44 39.67-10.68 39.67-31.83 0-19.4-13.73-30.3-39.26-30.3zm114.45 122.3l-8.07 21.58c-9.15 24.42-18.74 31.39-32.26 31.39-7.63 0-13.3-2-19.4-4.58l4.14-12.42c4.8 2.61 9.81 4.36 15.26 4.36 7.63 0 13.3-4.14 20.49-23.11l6.76-17.66-39-98.32H415l31.4 82.41 30.74-82.41h14.17z"/><path class="cls-1" d="M533.87 109.42v123.17h-14V109.42H472V96.34h109.83v13.08zm83.89 126c-27.69 0-48.18-20.49-48.18-52.54 0-31.83 21.36-53 49.27-53s48 20.49 48 52.54c-.04 31.86-21.41 53-49.09 53zm.43-93.3c-21.14 0-35.1 16.78-35.1 40.33 0 24.41 14.17 40.76 35.32 40.76s35.1-16.78 35.1-40.33c0-24.41-14.17-40.76-35.32-40.76zm80.29 90.47H685v-99.85l13.52-2.83v21.36c6.54-12.86 16.35-21.36 29.43-21.36a36.22 36.22 0 0117.44 4.58l-3.49 12.64a29.68 29.68 0 00-15.26-4.36c-10.46 0-20.27 7.85-28.12 25.73zm97.7 2.83c-30.08 0-48.83-21.58-48.83-52.54 0-31.17 20.71-53 49-53 12.21 0 22.67 3.05 31.18 8.5l-3.49 12.21a50.39 50.39 0 00-27.69-8.07c-21.58 0-35.1 16.13-35.1 39.9 0 24.41 14.17 40.33 35.32 40.33a51.66 51.66 0 0027.69-8.29l2.83 12.43a59.72 59.72 0 01-30.91 8.53zm112.47-2.83v-64.53c0-17.44-7-25.29-21.37-25.29-11.55 0-22.67 5.89-30.95 14.17v75.65h-13.52V85.65l13.52-2.83v63c10.46-10.46 23.54-15.91 34.66-15.91 19.4 0 31.18 12.42 31.18 34.22v68.46zm114.47-38.15c0 25.72-21.8 41-48 41-12.65 0-27-3.92-36-8.94l3.27-12.2a70 70 0 0033.2 8.7c17.88 0 33.79-9.6 33.79-27.47 0-15-12.42-25.51-32.91-25.51a113.19 113.19 0 00-18.75 1.74v-11.33c29.86-7.63 46.87-17.22 46.87-33.14 0-13.51-10.68-21.36-26.82-21.36-11.33 0-24.41 5.45-33.35 13.51l-5-11.77C949 99.82 963.82 93.5 978 93.5c24.2 0 40.33 12.65 40.33 32.7 0 16.13-12 27.69-35.53 34.88 26.37-.65 40.32 15.05 40.32 33.36zm59.21 38.15h-36V96.34h37.06c44.69 0 72.16 27 72.16 67.14.03 42.95-26.79 69.11-73.22 69.11zm.22-123.39h-22.24v110.53H1083c34.88 0 58.64-17.88 58.64-55.16-.02-34.66-21.82-55.37-59.09-55.37zM208.48 73.59H105.06v174h103.42l50.23-87zm23 67.87l-24.45-14.11V99.12zm5.12 19.13l-29.57 17.07v-34.14zm-43.57-73v31.68l-54.85-31.68zm-74 5.12l74 42.72v50.31l-74 42.72zm74 109.2v31.68h-54.85zm14 20.14v-28.22l24.45-14.12z"/></svg>